<svg xmlns="http://www.w3.org/2000/svg" xmlns:xlink="http://www.w3.org/1999/xlink" width="500" zoomAndPan="magnify" viewBox="0 0 375 74.999997" height="100" preserveAspectRatio="xMidYMid meet" version="1.0"><defs><g/><clipPath id="ca2afe3559"><path d="M 16 13 L 50.84375 13 L 50.84375 66.621094 L 16 66.621094 Z M 16 13 " clip-rule="nonzero"/></clipPath><clipPath id="71a21f5ef9"><path d="M 0 7.5 L 35 7.5 L 35 61 L 0 61 Z M 0 7.5 " clip-rule="nonzero"/></clipPath></defs><path fill="#3871c1" d="M 25.070312 28.140625 C 22.699219 28.308594 20.78125 30.226562 20.59375 32.609375 C 20.433594 34.664062 21.539062 36.472656 23.210938 37.335938 L 23.210938 43.769531 C 23.210938 44.996094 24.203125 45.992188 25.421875 45.992188 C 26.644531 45.992188 27.632812 44.996094 27.632812 43.769531 L 27.632812 37.335938 C 29.199219 36.527344 30.265625 34.890625 30.265625 33.003906 C 30.265625 30.191406 27.90625 27.9375 25.070312 28.140625 " fill-opacity="1" fill-rule="nonzero"/><g clip-path="url(#ca2afe3559)"><path fill="#f14624" d="M 35.203125 13.210938 L 16.273438 24.128906 L 32.1875 19.800781 L 43.664062 26.46875 C 43.664062 36.101562 39.851562 45.140625 33.441406 51.945312 C 28.425781 57.269531 19.578125 62.628906 19.578125 62.628906 C 21.417969 64.070312 23.367188 65.398438 25.421875 66.589844 C 41.15625 57.453125 50.847656 40.570312 50.847656 22.296875 L 35.203125 13.210938 " fill-opacity="1" fill-rule="nonzero"/></g><g clip-path="url(#71a21f5ef9)"><path fill="#3871c1" d="M 19.554688 54.011719 C 11.773438 47.121094 7.179688 37.125 7.179688 26.46875 L 7.203125 26.453125 L 32.546875 11.671875 L 25.421875 7.53125 L 0 22.296875 C 0 36.964844 6.246094 50.738281 16.847656 60.328125 C 16.847656 60.328125 27.339844 54.816406 34.324219 47.464844 L 19.554688 54.011719 " fill-opacity="1" fill-rule="nonzero"/></g><g fill="#201d1d" fill-opacity="1"><g transform="translate(55.318985, 38.959798)"><g><path d="M 15.4375 -4.734375 C 15.632812 -4.734375 15.796875 -4.671875 15.921875 -4.546875 C 16.054688 -4.421875 16.125 -4.253906 16.125 -4.046875 L 16.125 -0.6875 C 16.125 -0.5 16.054688 -0.335938 15.921875 -0.203125 C 15.796875 -0.0664062 15.632812 0 15.4375 0 L 2.0625 0 C 1.882812 0 1.722656 -0.0664062 1.578125 -0.203125 C 1.441406 -0.335938 1.375 -0.5 1.375 -0.6875 L 1.375 -18.609375 C 1.375 -18.804688 1.441406 -18.96875 1.578125 -19.09375 C 1.722656 -19.226562 1.882812 -19.296875 2.0625 -19.296875 L 6.390625 -19.296875 C 6.578125 -19.296875 6.734375 -19.226562 6.859375 -19.09375 C 6.992188 -18.96875 7.0625 -18.804688 7.0625 -18.609375 L 7.0625 -4.734375 Z M 15.4375 -4.734375 "/></g></g></g><g fill="#201d1d" fill-opacity="1"><g transform="translate(82.086435, 38.959798)"><g><path d="M 14.75 -4.734375 C 14.945312 -4.734375 15.109375 -4.671875 15.234375 -4.546875 C 15.367188 -4.421875 15.4375 -4.253906 15.4375 -4.046875 L 15.4375 -0.6875 C 15.4375 -0.5 15.367188 -0.335938 15.234375 -0.203125 C 15.109375 -0.0664062 14.945312 0 14.75 0 L 2.0625 0 C 1.882812 0 1.722656 -0.0664062 1.578125 -0.203125 C 1.441406 -0.335938 1.375 -0.5 1.375 -0.6875 L 1.375 -18.609375 C 1.375 -18.804688 1.441406 -18.96875 1.578125 -19.09375 C 1.722656 -19.226562 1.882812 -19.296875 2.0625 -19.296875 L 14.65625 -19.296875 C 14.84375 -19.296875 15.003906 -19.226562 15.140625 -19.09375 C 15.285156 -18.96875 15.359375 -18.804688 15.359375 -18.609375 L 15.359375 -15.234375 C 15.359375 -15.054688 15.285156 -14.894531 15.140625 -14.75 C 15.003906 -14.613281 14.84375 -14.546875 14.65625 -14.546875 L 7.0625 -14.546875 L 7.0625 -12.015625 L 13.234375 -12.015625 C 13.410156 -12.015625 13.566406 -11.945312 13.703125 -11.8125 C 13.847656 -11.6875 13.921875 -11.523438 13.921875 -11.328125 L 13.921875 -7.96875 C 13.921875 -7.78125 13.847656 -7.617188 13.703125 -7.484375 C 13.566406 -7.347656 13.410156 -7.28125 13.234375 -7.28125 L 7.0625 -7.28125 L 7.0625 -4.734375 Z M 14.75 -4.734375 "/></g></g></g><g fill="#201d1d" fill-opacity="1"><g transform="translate(108.164813, 38.959798)"><g><path d="M 21.640625 -9.921875 L 21.640625 -0.6875 C 21.640625 -0.5 21.570312 -0.335938 21.4375 -0.203125 C 21.3125 -0.0664062 21.148438 0 20.953125 0 L 17.828125 0 C 17.648438 0 17.488281 -0.0664062 17.34375 -0.203125 C 17.207031 -0.335938 17.140625 -0.5 17.140625 -0.6875 L 17.140625 -1.65625 C 16.460938 -1.0625 15.671875 -0.582031 14.765625 -0.21875 C 13.867188 0.144531 12.851562 0.328125 11.71875 0.328125 C 10.320312 0.328125 9 0.0703125 7.75 -0.4375 C 6.5 -0.957031 5.394531 -1.675781 4.4375 -2.59375 C 3.476562 -3.507812 2.726562 -4.566406 2.1875 -5.765625 C 1.644531 -6.972656 1.375 -8.265625 1.375 -9.640625 C 1.375 -11.023438 1.644531 -12.316406 2.1875 -13.515625 C 2.726562 -14.722656 3.476562 -15.785156 4.4375 -16.703125 C 5.394531 -17.617188 6.5 -18.332031 7.75 -18.84375 C 9 -19.363281 10.320312 -19.625 11.71875 -19.625 C 13.3125 -19.625 14.695312 -19.40625 15.875 -18.96875 C 17.050781 -18.539062 18.085938 -17.863281 18.984375 -16.9375 C 19.890625 -16.007812 20.703125 -14.800781 21.421875 -13.3125 C 21.503906 -13.125 21.503906 -12.953125 21.421875 -12.796875 C 21.347656 -12.640625 21.207031 -12.5625 21 -12.5625 L 16.671875 -12.5625 C 16.503906 -12.5625 16.359375 -12.601562 16.234375 -12.6875 C 16.117188 -12.769531 16.035156 -12.847656 15.984375 -12.921875 C 15.335938 -13.691406 14.675781 -14.1875 14 -14.40625 C 13.320312 -14.632812 12.5625 -14.75 11.71875 -14.75 C 10.800781 -14.75 9.984375 -14.519531 9.265625 -14.0625 C 8.546875 -13.613281 7.984375 -13.003906 7.578125 -12.234375 C 7.171875 -11.460938 6.96875 -10.597656 6.96875 -9.640625 C 6.96875 -8.691406 7.171875 -7.828125 7.578125 -7.046875 C 7.984375 -6.273438 8.546875 -5.664062 9.265625 -5.21875 C 9.984375 -4.769531 10.800781 -4.546875 11.71875 -4.546875 C 12.59375 -4.546875 13.394531 -4.722656 14.125 -5.078125 C 14.851562 -5.441406 15.390625 -5.988281 15.734375 -6.71875 L 12.515625 -6.71875 C 12.328125 -6.71875 12.171875 -6.785156 12.046875 -6.921875 C 11.921875 -7.066406 11.859375 -7.234375 11.859375 -7.421875 L 11.859375 -9.921875 C 11.859375 -10.117188 11.921875 -10.28125 12.046875 -10.40625 C 12.171875 -10.539062 12.328125 -10.609375 12.515625 -10.609375 L 20.953125 -10.609375 C 21.148438 -10.609375 21.3125 -10.539062 21.4375 -10.40625 C 21.570312 -10.28125 21.640625 -10.117188 21.640625 -9.921875 Z M 21.640625 -9.921875 "/></g></g></g><g fill="#201d1d" fill-opacity="1"><g transform="translate(140.444906, 38.959798)"><g><path d="M 20.921875 -0.96875 C 21.023438 -0.675781 21.023438 -0.441406 20.921875 -0.265625 C 20.828125 -0.0859375 20.660156 0 20.421875 0 L 15.9375 0 C 15.53125 0 15.253906 -0.078125 15.109375 -0.234375 C 14.972656 -0.390625 14.832031 -0.644531 14.6875 -1 C 14.664062 -1.070312 14.609375 -1.238281 14.515625 -1.5 C 14.429688 -1.769531 14.316406 -2.125 14.171875 -2.5625 L 8.21875 -2.5625 C 8.082031 -2.125 7.96875 -1.769531 7.875 -1.5 C 7.789062 -1.238281 7.726562 -1.070312 7.6875 -1 C 7.5625 -0.644531 7.425781 -0.390625 7.28125 -0.234375 C 7.144531 -0.078125 6.867188 0 6.453125 0 L 1.984375 0 C 1.742188 0 1.566406 -0.0859375 1.453125 -0.265625 C 1.347656 -0.441406 1.359375 -0.675781 1.484375 -0.96875 C 1.523438 -1.0625 1.664062 -1.441406 1.90625 -2.109375 C 2.15625 -2.773438 2.46875 -3.625 2.84375 -4.65625 C 3.226562 -5.6875 3.644531 -6.8125 4.09375 -8.03125 C 4.539062 -9.257812 4.988281 -10.476562 5.4375 -11.6875 C 5.894531 -12.894531 6.3125 -14.007812 6.6875 -15.03125 C 7.0625 -16.050781 7.367188 -16.882812 7.609375 -17.53125 C 7.847656 -18.175781 7.984375 -18.535156 8.015625 -18.609375 C 8.109375 -18.847656 8.210938 -19.019531 8.328125 -19.125 C 8.453125 -19.238281 8.632812 -19.296875 8.875 -19.296875 L 13.5 -19.296875 C 13.757812 -19.296875 13.941406 -19.238281 14.046875 -19.125 C 14.160156 -19.019531 14.273438 -18.847656 14.390625 -18.609375 C 14.421875 -18.535156 14.554688 -18.175781 14.796875 -17.53125 C 15.035156 -16.882812 15.34375 -16.046875 15.71875 -15.015625 C 16.101562 -13.992188 16.519531 -12.875 16.96875 -11.65625 C 17.414062 -10.445312 17.863281 -9.226562 18.3125 -8 C 18.757812 -6.78125 19.171875 -5.65625 19.546875 -4.625 C 19.929688 -3.601562 20.242188 -2.757812 20.484375 -2.09375 C 20.734375 -1.4375 20.878906 -1.0625 20.921875 -0.96875 Z M 9.734375 -7.296875 L 12.65625 -7.296875 C 12.414062 -8.054688 12.175781 -8.820312 11.9375 -9.59375 C 11.695312 -10.363281 11.445312 -11.125 11.1875 -11.875 C 10.945312 -11.125 10.707031 -10.363281 10.46875 -9.59375 C 10.226562 -8.820312 9.984375 -8.054688 9.734375 -7.296875 Z M 9.734375 -7.296875 "/></g></g></g><g fill="#201d1d" fill-opacity="1"><g transform="translate(172.091032, 38.959798)"><g><path d="M 16.09375 -7.421875 C 16.1875 -7.671875 16.390625 -7.796875 16.703125 -7.796875 L 21 -7.796875 C 21.207031 -7.796875 21.34375 -7.71875 21.40625 -7.5625 C 21.46875 -7.40625 21.476562 -7.238281 21.4375 -7.0625 C 21.09375 -5.582031 20.457031 -4.285156 19.53125 -3.171875 C 18.601562 -2.066406 17.472656 -1.210938 16.140625 -0.609375 C 14.804688 -0.00390625 13.332031 0.296875 11.71875 0.296875 C 10.320312 0.296875 9 0.0390625 7.75 -0.46875 C 6.5 -0.976562 5.394531 -1.691406 4.4375 -2.609375 C 3.476562 -3.535156 2.726562 -4.597656 2.1875 -5.796875 C 1.644531 -7.003906 1.375 -8.296875 1.375 -9.671875 C 1.375 -11.046875 1.644531 -12.335938 2.1875 -13.546875 C 2.726562 -14.753906 3.476562 -15.8125 4.4375 -16.71875 C 5.394531 -17.625 6.5 -18.332031 7.75 -18.84375 C 9 -19.363281 10.320312 -19.625 11.71875 -19.625 C 13.3125 -19.625 14.769531 -19.320312 16.09375 -18.71875 C 17.414062 -18.125 18.539062 -17.285156 19.46875 -16.203125 C 20.394531 -15.117188 21.046875 -13.84375 21.421875 -12.375 C 21.453125 -12.1875 21.441406 -12.019531 21.390625 -11.875 C 21.335938 -11.726562 21.207031 -11.65625 21 -11.65625 L 16.640625 -11.65625 C 16.484375 -11.65625 16.359375 -11.695312 16.265625 -11.78125 C 16.171875 -11.863281 16.101562 -11.941406 16.0625 -12.015625 C 15.675781 -12.953125 15.113281 -13.644531 14.375 -14.09375 C 13.644531 -14.550781 12.757812 -14.78125 11.71875 -14.78125 C 10.800781 -14.78125 9.984375 -14.550781 9.265625 -14.09375 C 8.546875 -13.644531 7.984375 -13.035156 7.578125 -12.265625 C 7.171875 -11.492188 6.96875 -10.628906 6.96875 -9.671875 C 6.96875 -8.710938 7.171875 -7.847656 7.578125 -7.078125 C 7.984375 -6.304688 8.546875 -5.695312 9.265625 -5.25 C 9.984375 -4.800781 10.800781 -4.578125 11.71875 -4.578125 C 12.78125 -4.578125 13.679688 -4.8125 14.421875 -5.28125 C 15.171875 -5.75 15.726562 -6.460938 16.09375 -7.421875 Z M 16.09375 -7.421875 "/></g></g></g><g fill="#201d1d" fill-opacity="1"><g transform="translate(204.205732, 38.959798)"><g><path d="M 19.265625 -19.296875 C 19.503906 -19.296875 19.6875 -19.21875 19.8125 -19.0625 C 19.945312 -18.90625 19.941406 -18.671875 19.796875 -18.359375 C 19.753906 -18.265625 19.609375 -17.984375 19.359375 -17.515625 C 19.109375 -17.046875 18.796875 -16.445312 18.421875 -15.71875 C 18.046875 -15 17.632812 -14.21875 17.1875 -13.375 C 16.75 -12.539062 16.3125 -11.707031 15.875 -10.875 C 15.445312 -10.050781 15.054688 -9.296875 14.703125 -8.609375 C 14.347656 -7.921875 14.054688 -7.367188 13.828125 -6.953125 C 13.609375 -6.546875 13.5 -6.34375 13.5 -6.34375 L 13.5 -0.6875 C 13.5 -0.5 13.4375 -0.335938 13.3125 -0.203125 C 13.1875 -0.0664062 13.019531 0 12.8125 0 L 8.484375 0 C 8.304688 0 8.148438 -0.0664062 8.015625 -0.203125 C 7.890625 -0.335938 7.828125 -0.5 7.828125 -0.6875 L 7.828125 -6.34375 C 7.828125 -6.34375 7.71875 -6.546875 7.5 -6.953125 C 7.28125 -7.367188 6.988281 -7.921875 6.625 -8.609375 C 6.269531 -9.296875 5.875 -10.050781 5.4375 -10.875 C 5.007812 -11.707031 4.570312 -12.546875 4.125 -13.390625 C 3.6875 -14.234375 3.273438 -15.019531 2.890625 -15.75 C 2.503906 -16.476562 2.1875 -17.082031 1.9375 -17.5625 C 1.695312 -18.039062 1.554688 -18.320312 1.515625 -18.40625 C 1.367188 -18.71875 1.359375 -18.941406 1.484375 -19.078125 C 1.617188 -19.222656 1.804688 -19.296875 2.046875 -19.296875 L 6.53125 -19.296875 C 6.9375 -19.296875 7.207031 -19.222656 7.34375 -19.078125 C 7.476562 -18.929688 7.613281 -18.671875 7.75 -18.296875 C 7.78125 -18.203125 7.898438 -17.921875 8.109375 -17.453125 C 8.328125 -16.992188 8.578125 -16.441406 8.859375 -15.796875 C 9.140625 -15.148438 9.414062 -14.515625 9.6875 -13.890625 C 9.96875 -13.265625 10.203125 -12.742188 10.390625 -12.328125 C 10.578125 -11.921875 10.671875 -11.71875 10.671875 -11.71875 C 10.671875 -11.71875 10.757812 -11.925781 10.9375 -12.34375 C 11.125 -12.769531 11.351562 -13.296875 11.625 -13.921875 C 11.90625 -14.546875 12.179688 -15.175781 12.453125 -15.8125 C 12.734375 -16.457031 12.976562 -17.015625 13.1875 -17.484375 C 13.394531 -17.953125 13.519531 -18.222656 13.5625 -18.296875 C 13.707031 -18.671875 13.847656 -18.929688 13.984375 -19.078125 C 14.117188 -19.222656 14.390625 -19.296875 14.796875 -19.296875 Z M 19.265625 -19.296875 "/></g></g></g><g fill="#201d1d" fill-opacity="1"><g transform="translate(234.776904, 38.959798)"><g/></g></g><g fill="#201d1d" fill-opacity="1"><g transform="translate(252.531206, 38.959798)"><g><path d="M 15.4375 -4.734375 C 15.632812 -4.734375 15.796875 -4.671875 15.921875 -4.546875 C 16.054688 -4.421875 16.125 -4.253906 16.125 -4.046875 L 16.125 -0.6875 C 16.125 -0.5 16.054688 -0.335938 15.921875 -0.203125 C 15.796875 -0.0664062 15.632812 0 15.4375 0 L 2.0625 0 C 1.882812 0 1.722656 -0.0664062 1.578125 -0.203125 C 1.441406 -0.335938 1.375 -0.5 1.375 -0.6875 L 1.375 -18.609375 C 1.375 -18.804688 1.441406 -18.96875 1.578125 -19.09375 C 1.722656 -19.226562 1.882812 -19.296875 2.0625 -19.296875 L 6.390625 -19.296875 C 6.578125 -19.296875 6.734375 -19.226562 6.859375 -19.09375 C 6.992188 -18.96875 7.0625 -18.804688 7.0625 -18.609375 L 7.0625 -4.734375 Z M 15.4375 -4.734375 "/></g></g></g><g fill="#201d1d" fill-opacity="1"><g transform="translate(279.298652, 38.959798)"><g><path d="M 11.71875 -19.625 C 13.113281 -19.625 14.4375 -19.363281 15.6875 -18.84375 C 16.9375 -18.332031 18.035156 -17.617188 18.984375 -16.703125 C 19.941406 -15.785156 20.691406 -14.722656 21.234375 -13.515625 C 21.773438 -12.316406 22.046875 -11.023438 22.046875 -9.640625 C 22.046875 -8.265625 21.773438 -6.972656 21.234375 -5.765625 C 20.691406 -4.566406 19.941406 -3.507812 18.984375 -2.59375 C 18.035156 -1.675781 16.9375 -0.957031 15.6875 -0.4375 C 14.4375 0.0703125 13.113281 0.328125 11.71875 0.328125 C 10.320312 0.328125 9 0.0703125 7.75 -0.4375 C 6.5 -0.957031 5.394531 -1.675781 4.4375 -2.59375 C 3.476562 -3.507812 2.726562 -4.566406 2.1875 -5.765625 C 1.644531 -6.972656 1.375 -8.265625 1.375 -9.640625 C 1.375 -11.023438 1.644531 -12.316406 2.1875 -13.515625 C 2.726562 -14.722656 3.476562 -15.785156 4.4375 -16.703125 C 5.394531 -17.617188 6.5 -18.332031 7.75 -18.84375 C 9 -19.363281 10.320312 -19.625 11.71875 -19.625 Z M 11.71875 -4.546875 C 12.613281 -4.546875 13.425781 -4.773438 14.15625 -5.234375 C 14.894531 -5.691406 15.484375 -6.304688 15.921875 -7.078125 C 16.367188 -7.847656 16.59375 -8.703125 16.59375 -9.640625 C 16.59375 -10.578125 16.367188 -11.425781 15.921875 -12.1875 C 15.484375 -12.957031 14.894531 -13.570312 14.15625 -14.03125 C 13.425781 -14.488281 12.613281 -14.71875 11.71875 -14.71875 C 10.8125 -14.71875 9.984375 -14.488281 9.234375 -14.03125 C 8.492188 -13.570312 7.90625 -12.957031 7.46875 -12.1875 C 7.03125 -11.425781 6.8125 -10.578125 6.8125 -9.640625 C 6.8125 -8.703125 7.03125 -7.847656 7.46875 -7.078125 C 7.90625 -6.304688 8.492188 -5.691406 9.234375 -5.234375 C 9.984375 -4.773438 10.8125 -4.546875 11.71875 -4.546875 Z M 11.71875 -4.546875 "/></g></g></g><g fill="#201d1d" fill-opacity="1"><g transform="translate(311.992184, 38.959798)"><g><path d="M 16.09375 -7.421875 C 16.1875 -7.671875 16.390625 -7.796875 16.703125 -7.796875 L 21 -7.796875 C 21.207031 -7.796875 21.34375 -7.71875 21.40625 -7.5625 C 21.46875 -7.40625 21.476562 -7.238281 21.4375 -7.0625 C 21.09375 -5.582031 20.457031 -4.285156 19.53125 -3.171875 C 18.601562 -2.066406 17.472656 -1.210938 16.140625 -0.609375 C 14.804688 -0.00390625 13.332031 0.296875 11.71875 0.296875 C 10.320312 0.296875 9 0.0390625 7.75 -0.46875 C 6.5 -0.976562 5.394531 -1.691406 4.4375 -2.609375 C 3.476562 -3.535156 2.726562 -4.597656 2.1875 -5.796875 C 1.644531 -7.003906 1.375 -8.296875 1.375 -9.671875 C 1.375 -11.046875 1.644531 -12.335938 2.1875 -13.546875 C 2.726562 -14.753906 3.476562 -15.8125 4.4375 -16.71875 C 5.394531 -17.625 6.5 -18.332031 7.75 -18.84375 C 9 -19.363281 10.320312 -19.625 11.71875 -19.625 C 13.3125 -19.625 14.769531 -19.320312 16.09375 -18.71875 C 17.414062 -18.125 18.539062 -17.285156 19.46875 -16.203125 C 20.394531 -15.117188 21.046875 -13.84375 21.421875 -12.375 C 21.453125 -12.1875 21.441406 -12.019531 21.390625 -11.875 C 21.335938 -11.726562 21.207031 -11.65625 21 -11.65625 L 16.640625 -11.65625 C 16.484375 -11.65625 16.359375 -11.695312 16.265625 -11.78125 C 16.171875 -11.863281 16.101562 -11.941406 16.0625 -12.015625 C 15.675781 -12.953125 15.113281 -13.644531 14.375 -14.09375 C 13.644531 -14.550781 12.757812 -14.78125 11.71875 -14.78125 C 10.800781 -14.78125 9.984375 -14.550781 9.265625 -14.09375 C 8.546875 -13.644531 7.984375 -13.035156 7.578125 -12.265625 C 7.171875 -11.492188 6.96875 -10.628906 6.96875 -9.671875 C 6.96875 -8.710938 7.171875 -7.847656 7.578125 -7.078125 C 7.984375 -6.304688 8.546875 -5.695312 9.265625 -5.25 C 9.984375 -4.800781 10.800781 -4.578125 11.71875 -4.578125 C 12.78125 -4.578125 13.679688 -4.8125 14.421875 -5.28125 C 15.171875 -5.75 15.726562 -6.460938 16.09375 -7.421875 Z M 16.09375 -7.421875 "/></g></g></g><g fill="#201d1d" fill-opacity="1"><g transform="translate(344.106885, 38.959798)"><g><path d="M 19.515625 -0.96875 C 19.679688 -0.6875 19.695312 -0.453125 19.5625 -0.265625 C 19.4375 -0.0859375 19.253906 0 19.015625 0 L 14.1875 0 C 13.894531 0 13.644531 -0.0859375 13.4375 -0.265625 C 13.226562 -0.441406 13.007812 -0.6875 12.78125 -1 C 12.707031 -1.101562 12.53125 -1.363281 12.25 -1.78125 C 11.96875 -2.207031 11.625 -2.734375 11.21875 -3.359375 C 10.8125 -3.984375 10.378906 -4.632812 9.921875 -5.3125 C 9.460938 -6 9.03125 -6.65625 8.625 -7.28125 L 7.078125 -7.28125 L 7.078125 -0.6875 C 7.078125 -0.5 7.007812 -0.335938 6.875 -0.203125 C 6.738281 -0.0664062 6.578125 0 6.390625 0 L 2.0625 0 C 1.882812 0 1.722656 -0.0664062 1.578125 -0.203125 C 1.441406 -0.335938 1.375 -0.5 1.375 -0.6875 L 1.375 -18.609375 C 1.375 -18.804688 1.441406 -18.96875 1.578125 -19.09375 C 1.722656 -19.226562 1.882812 -19.296875 2.0625 -19.296875 L 6.390625 -19.296875 C 6.578125 -19.296875 6.738281 -19.226562 6.875 -19.09375 C 7.007812 -18.96875 7.078125 -18.804688 7.078125 -18.609375 L 7.078125 -12.015625 L 8.546875 -12.015625 C 8.910156 -12.710938 9.28125 -13.429688 9.65625 -14.171875 C 10.03125 -14.921875 10.382812 -15.617188 10.71875 -16.265625 C 11.050781 -16.921875 11.328125 -17.457031 11.546875 -17.875 C 11.765625 -18.300781 11.882812 -18.546875 11.90625 -18.609375 C 12.164062 -19.066406 12.515625 -19.296875 12.953125 -19.296875 L 17.890625 -19.296875 C 18.660156 -19.296875 18.878906 -19 18.546875 -18.40625 C 18.515625 -18.332031 18.375 -18.046875 18.125 -17.546875 C 17.875 -17.054688 17.5625 -16.445312 17.1875 -15.71875 C 16.820312 -15 16.429688 -14.234375 16.015625 -13.421875 C 15.609375 -12.609375 15.222656 -11.847656 14.859375 -11.140625 C 14.492188 -10.441406 14.191406 -9.867188 13.953125 -9.421875 C 14.171875 -9.097656 14.492188 -8.613281 14.921875 -7.96875 C 15.359375 -7.320312 15.820312 -6.617188 16.3125 -5.859375 C 16.8125 -5.109375 17.296875 -4.375 17.765625 -3.65625 C 18.234375 -2.945312 18.628906 -2.34375 18.953125 -1.84375 C 19.273438 -1.351562 19.460938 -1.0625 19.515625 -0.96875 Z M 19.515625 -0.96875 "/></g></g></g><g fill="#201d1d" fill-opacity="1"><g transform="translate(55.318985, 57.566778)"><g><path d="M 1.375 -9.203125 L 5.25 -9.203125 C 6.226562 -9.203125 7.09375 -9.007812 7.84375 -8.625 C 8.59375 -8.238281 9.175781 -7.695312 9.59375 -7 C 10.007812 -6.300781 10.21875 -5.5 10.21875 -4.59375 C 10.21875 -3.695312 10.007812 -2.898438 9.59375 -2.203125 C 9.175781 -1.503906 8.59375 -0.960938 7.84375 -0.578125 C 7.09375 -0.191406 6.226562 0 5.25 0 L 1.375 0 Z M 5.171875 -1.140625 C 5.921875 -1.140625 6.578125 -1.285156 7.140625 -1.578125 C 7.703125 -1.867188 8.132812 -2.273438 8.4375 -2.796875 C 8.75 -3.316406 8.90625 -3.914062 8.90625 -4.59375 C 8.90625 -5.28125 8.75 -5.882812 8.4375 -6.40625 C 8.132812 -6.925781 7.703125 -7.332031 7.140625 -7.625 C 6.578125 -7.914062 5.921875 -8.0625 5.171875 -8.0625 L 2.6875 -8.0625 L 2.6875 -1.140625 Z M 5.171875 -1.140625 "/></g></g></g><g fill="#201d1d" fill-opacity="1"><g transform="translate(67.620591, 57.566778)"><g><path d="M 1.375 -9.203125 L 2.6875 -9.203125 L 2.6875 0 L 1.375 0 Z M 1.375 -9.203125 "/></g></g></g><g fill="#201d1d" fill-opacity="1"><g transform="translate(73.140857, 57.566778)"><g><path d="M 7.75 -4.65625 L 9.015625 -4.65625 L 9.015625 -1.0625 C 8.554688 -0.6875 8.023438 -0.394531 7.421875 -0.1875 C 6.816406 0.0078125 6.1875 0.109375 5.53125 0.109375 C 4.601562 0.109375 3.765625 -0.09375 3.015625 -0.5 C 2.273438 -0.90625 1.691406 -1.46875 1.265625 -2.1875 C 0.835938 -2.90625 0.625 -3.707031 0.625 -4.59375 C 0.625 -5.488281 0.835938 -6.296875 1.265625 -7.015625 C 1.691406 -7.734375 2.28125 -8.289062 3.03125 -8.6875 C 3.78125 -9.09375 4.625 -9.296875 5.5625 -9.296875 C 6.289062 -9.296875 6.957031 -9.175781 7.5625 -8.9375 C 8.164062 -8.695312 8.675781 -8.347656 9.09375 -7.890625 L 8.28125 -7.0625 C 7.539062 -7.78125 6.648438 -8.140625 5.609375 -8.140625 C 4.910156 -8.140625 4.28125 -7.988281 3.71875 -7.6875 C 3.164062 -7.382812 2.726562 -6.960938 2.40625 -6.421875 C 2.09375 -5.878906 1.9375 -5.269531 1.9375 -4.59375 C 1.9375 -3.925781 2.09375 -3.320312 2.40625 -2.78125 C 2.726562 -2.25 3.164062 -1.828125 3.71875 -1.515625 C 4.28125 -1.210938 4.90625 -1.0625 5.59375 -1.0625 C 6.414062 -1.0625 7.132812 -1.257812 7.75 -1.65625 Z M 7.75 -4.65625 "/></g></g></g><g fill="#201d1d" fill-opacity="1"><g transform="translate(84.732792, 57.566778)"><g><path d="M 1.375 -9.203125 L 2.6875 -9.203125 L 2.6875 0 L 1.375 0 Z M 1.375 -9.203125 "/></g></g></g><g fill="#201d1d" fill-opacity="1"><g transform="translate(90.253059, 57.566778)"><g><path d="M 3.203125 -8.0625 L 0.046875 -8.0625 L 0.046875 -9.203125 L 7.65625 -9.203125 L 7.65625 -8.0625 L 4.5 -8.0625 L 4.5 0 L 3.203125 0 Z M 3.203125 -8.0625 "/></g></g></g><g fill="#201d1d" fill-opacity="1"><g transform="translate(99.413698, 57.566778)"><g><path d="M 7.234375 -2.296875 L 2.359375 -2.296875 L 1.34375 0 L -0.015625 0 L 4.15625 -9.203125 L 5.453125 -9.203125 L 9.625 0 L 8.25 0 Z M 6.78125 -3.34375 L 4.796875 -7.859375 L 2.8125 -3.34375 Z M 6.78125 -3.34375 "/></g></g></g><g fill="#201d1d" fill-opacity="1"><g transform="translate(110.479945, 57.566778)"><g><path d="M 1.375 -9.203125 L 2.6875 -9.203125 L 2.6875 -1.140625 L 7.671875 -1.140625 L 7.671875 0 L 1.375 0 Z M 1.375 -9.203125 "/></g></g></g><g fill="#201d1d" fill-opacity="1"><g transform="translate(119.732571, 57.566778)"><g/></g></g><g fill="#201d1d" fill-opacity="1"><g transform="translate(124.714014, 57.566778)"><g><path d="M 7.234375 -2.296875 L 2.359375 -2.296875 L 1.34375 0 L -0.015625 0 L 4.15625 -9.203125 L 5.453125 -9.203125 L 9.625 0 L 8.25 0 Z M 6.78125 -3.34375 L 4.796875 -7.859375 L 2.8125 -3.34375 Z M 6.78125 -3.34375 "/></g></g></g><g fill="#201d1d" fill-opacity="1"><g transform="translate(135.780262, 57.566778)"><g><path d="M 4.0625 0.109375 C 3.363281 0.109375 2.691406 0.00390625 2.046875 -0.203125 C 1.410156 -0.421875 0.90625 -0.703125 0.53125 -1.046875 L 1.03125 -2.078125 C 1.375 -1.765625 1.816406 -1.507812 2.359375 -1.3125 C 2.910156 -1.113281 3.476562 -1.015625 4.0625 -1.015625 C 4.820312 -1.015625 5.390625 -1.140625 5.765625 -1.390625 C 6.140625 -1.648438 6.328125 -2 6.328125 -2.4375 C 6.328125 -2.75 6.222656 -3.003906 6.015625 -3.203125 C 5.816406 -3.398438 5.566406 -3.550781 5.265625 -3.65625 C 4.960938 -3.757812 4.535156 -3.878906 3.984375 -4.015625 C 3.285156 -4.171875 2.722656 -4.332031 2.296875 -4.5 C 1.878906 -4.664062 1.519531 -4.921875 1.21875 -5.265625 C 0.914062 -5.617188 0.765625 -6.085938 0.765625 -6.671875 C 0.765625 -7.160156 0.890625 -7.601562 1.140625 -8 C 1.398438 -8.394531 1.789062 -8.707031 2.3125 -8.9375 C 2.84375 -9.175781 3.5 -9.296875 4.28125 -9.296875 C 4.820312 -9.296875 5.351562 -9.226562 5.875 -9.09375 C 6.40625 -8.957031 6.859375 -8.753906 7.234375 -8.484375 L 6.8125 -7.4375 C 6.425781 -7.6875 6.015625 -7.875 5.578125 -8 C 5.140625 -8.125 4.707031 -8.1875 4.28125 -8.1875 C 3.539062 -8.1875 2.984375 -8.050781 2.609375 -7.78125 C 2.234375 -7.507812 2.046875 -7.160156 2.046875 -6.734375 C 2.046875 -6.410156 2.148438 -6.148438 2.359375 -5.953125 C 2.578125 -5.753906 2.835938 -5.597656 3.140625 -5.484375 C 3.453125 -5.378906 3.878906 -5.269531 4.421875 -5.15625 C 5.109375 -4.988281 5.660156 -4.820312 6.078125 -4.65625 C 6.503906 -4.488281 6.867188 -4.234375 7.171875 -3.890625 C 7.472656 -3.546875 7.625 -3.085938 7.625 -2.515625 C 7.625 -2.023438 7.488281 -1.582031 7.21875 -1.1875 C 6.957031 -0.789062 6.5625 -0.472656 6.03125 -0.234375 C 5.5 -0.00390625 4.84375 0.109375 4.0625 0.109375 Z M 4.0625 0.109375 "/></g></g></g><g fill="#201d1d" fill-opacity="1"><g transform="translate(145.387734, 57.566778)"><g><path d="M 4.0625 0.109375 C 3.363281 0.109375 2.691406 0.00390625 2.046875 -0.203125 C 1.410156 -0.421875 0.90625 -0.703125 0.53125 -1.046875 L 1.03125 -2.078125 C 1.375 -1.765625 1.816406 -1.507812 2.359375 -1.3125 C 2.910156 -1.113281 3.476562 -1.015625 4.0625 -1.015625 C 4.820312 -1.015625 5.390625 -1.140625 5.765625 -1.390625 C 6.140625 -1.648438 6.328125 -2 6.328125 -2.4375 C 6.328125 -2.75 6.222656 -3.003906 6.015625 -3.203125 C 5.816406 -3.398438 5.566406 -3.550781 5.265625 -3.65625 C 4.960938 -3.757812 4.535156 -3.878906 3.984375 -4.015625 C 3.285156 -4.171875 2.722656 -4.332031 2.296875 -4.5 C 1.878906 -4.664062 1.519531 -4.921875 1.21875 -5.265625 C 0.914062 -5.617188 0.765625 -6.085938 0.765625 -6.671875 C 0.765625 -7.160156 0.890625 -7.601562 1.140625 -8 C 1.398438 -8.394531 1.789062 -8.707031 2.3125 -8.9375 C 2.84375 -9.175781 3.5 -9.296875 4.28125 -9.296875 C 4.820312 -9.296875 5.351562 -9.226562 5.875 -9.09375 C 6.40625 -8.957031 6.859375 -8.753906 7.234375 -8.484375 L 6.8125 -7.4375 C 6.425781 -7.6875 6.015625 -7.875 5.578125 -8 C 5.140625 -8.125 4.707031 -8.1875 4.28125 -8.1875 C 3.539062 -8.1875 2.984375 -8.050781 2.609375 -7.78125 C 2.234375 -7.507812 2.046875 -7.160156 2.046875 -6.734375 C 2.046875 -6.410156 2.148438 -6.148438 2.359375 -5.953125 C 2.578125 -5.753906 2.835938 -5.597656 3.140625 -5.484375 C 3.453125 -5.378906 3.878906 -5.269531 4.421875 -5.15625 C 5.109375 -4.988281 5.660156 -4.820312 6.078125 -4.65625 C 6.503906 -4.488281 6.867188 -4.234375 7.171875 -3.890625 C 7.472656 -3.546875 7.625 -3.085938 7.625 -2.515625 C 7.625 -2.023438 7.488281 -1.582031 7.21875 -1.1875 C 6.957031 -0.789062 6.5625 -0.472656 6.03125 -0.234375 C 5.5 -0.00390625 4.84375 0.109375 4.0625 0.109375 Z M 4.0625 0.109375 "/></g></g></g><g fill="#201d1d" fill-opacity="1"><g transform="translate(154.995206, 57.566778)"><g><path d="M 8.0625 -1.140625 L 8.0625 0 L 1.375 0 L 1.375 -9.203125 L 7.875 -9.203125 L 7.875 -8.0625 L 2.6875 -8.0625 L 2.6875 -5.234375 L 7.3125 -5.234375 L 7.3125 -4.109375 L 2.6875 -4.109375 L 2.6875 -1.140625 Z M 8.0625 -1.140625 "/></g></g></g><g fill="#201d1d" fill-opacity="1"><g transform="translate(165.246643, 57.566778)"><g><path d="M 3.203125 -8.0625 L 0.046875 -8.0625 L 0.046875 -9.203125 L 7.65625 -9.203125 L 7.65625 -8.0625 L 4.5 -8.0625 L 4.5 0 L 3.203125 0 Z M 3.203125 -8.0625 "/></g></g></g><g fill="#201d1d" fill-opacity="1"><g transform="translate(174.407281, 57.566778)"><g/></g></g><g fill="#201d1d" fill-opacity="1"><g transform="translate(179.388725, 57.566778)"><g><path d="M 9.90625 0 L 9.890625 -6.703125 L 6.578125 -1.109375 L 5.96875 -1.109375 L 2.640625 -6.65625 L 2.640625 0 L 1.375 0 L 1.375 -9.203125 L 2.453125 -9.203125 L 6.296875 -2.734375 L 10.078125 -9.203125 L 11.15625 -9.203125 L 11.171875 0 Z M 9.90625 0 "/></g></g></g><g fill="#201d1d" fill-opacity="1"><g transform="translate(193.385666, 57.566778)"><g><path d="M 7.234375 -2.296875 L 2.359375 -2.296875 L 1.34375 0 L -0.015625 0 L 4.15625 -9.203125 L 5.453125 -9.203125 L 9.625 0 L 8.25 0 Z M 6.78125 -3.34375 L 4.796875 -7.859375 L 2.8125 -3.34375 Z M 6.78125 -3.34375 "/></g></g></g><g fill="#201d1d" fill-opacity="1"><g transform="translate(204.451914, 57.566778)"><g><path d="M 9.296875 -9.203125 L 9.296875 0 L 8.21875 0 L 2.6875 -6.859375 L 2.6875 0 L 1.375 0 L 1.375 -9.203125 L 2.453125 -9.203125 L 7.96875 -2.34375 L 7.96875 -9.203125 Z M 9.296875 -9.203125 "/></g></g></g><g fill="#201d1d" fill-opacity="1"><g transform="translate(216.569539, 57.566778)"><g><path d="M 7.234375 -2.296875 L 2.359375 -2.296875 L 1.34375 0 L -0.015625 0 L 4.15625 -9.203125 L 5.453125 -9.203125 L 9.625 0 L 8.25 0 Z M 6.78125 -3.34375 L 4.796875 -7.859375 L 2.8125 -3.34375 Z M 6.78125 -3.34375 "/></g></g></g><g fill="#201d1d" fill-opacity="1"><g transform="translate(227.635787, 57.566778)"><g><path d="M 7.75 -4.65625 L 9.015625 -4.65625 L 9.015625 -1.0625 C 8.554688 -0.6875 8.023438 -0.394531 7.421875 -0.1875 C 6.816406 0.0078125 6.1875 0.109375 5.53125 0.109375 C 4.601562 0.109375 3.765625 -0.09375 3.015625 -0.5 C 2.273438 -0.90625 1.691406 -1.46875 1.265625 -2.1875 C 0.835938 -2.90625 0.625 -3.707031 0.625 -4.59375 C 0.625 -5.488281 0.835938 -6.296875 1.265625 -7.015625 C 1.691406 -7.734375 2.28125 -8.289062 3.03125 -8.6875 C 3.78125 -9.09375 4.625 -9.296875 5.5625 -9.296875 C 6.289062 -9.296875 6.957031 -9.175781 7.5625 -8.9375 C 8.164062 -8.695312 8.675781 -8.347656 9.09375 -7.890625 L 8.28125 -7.0625 C 7.539062 -7.78125 6.648438 -8.140625 5.609375 -8.140625 C 4.910156 -8.140625 4.28125 -7.988281 3.71875 -7.6875 C 3.164062 -7.382812 2.726562 -6.960938 2.40625 -6.421875 C 2.09375 -5.878906 1.9375 -5.269531 1.9375 -4.59375 C 1.9375 -3.925781 2.09375 -3.320312 2.40625 -2.78125 C 2.726562 -2.25 3.164062 -1.828125 3.71875 -1.515625 C 4.28125 -1.210938 4.90625 -1.0625 5.59375 -1.0625 C 6.414062 -1.0625 7.132812 -1.257812 7.75 -1.65625 Z M 7.75 -4.65625 "/></g></g></g><g fill="#201d1d" fill-opacity="1"><g transform="translate(239.227723, 57.566778)"><g><path d="M 8.0625 -1.140625 L 8.0625 0 L 1.375 0 L 1.375 -9.203125 L 7.875 -9.203125 L 7.875 -8.0625 L 2.6875 -8.0625 L 2.6875 -5.234375 L 7.3125 -5.234375 L 7.3125 -4.109375 L 2.6875 -4.109375 L 2.6875 -1.140625 Z M 8.0625 -1.140625 "/></g></g></g><g fill="#201d1d" fill-opacity="1"><g transform="translate(249.47916, 57.566778)"><g><path d="M 9.90625 0 L 9.890625 -6.703125 L 6.578125 -1.109375 L 5.96875 -1.109375 L 2.640625 -6.65625 L 2.640625 0 L 1.375 0 L 1.375 -9.203125 L 2.453125 -9.203125 L 6.296875 -2.734375 L 10.078125 -9.203125 L 11.15625 -9.203125 L 11.171875 0 Z M 9.90625 0 "/></g></g></g><g fill="#201d1d" fill-opacity="1"><g transform="translate(263.476109, 57.566778)"><g><path d="M 8.0625 -1.140625 L 8.0625 0 L 1.375 0 L 1.375 -9.203125 L 7.875 -9.203125 L 7.875 -8.0625 L 2.6875 -8.0625 L 2.6875 -5.234375 L 7.3125 -5.234375 L 7.3125 -4.109375 L 2.6875 -4.109375 L 2.6875 -1.140625 Z M 8.0625 -1.140625 "/></g></g></g><g fill="#201d1d" fill-opacity="1"><g transform="translate(273.727546, 57.566778)"><g><path d="M 9.296875 -9.203125 L 9.296875 0 L 8.21875 0 L 2.6875 -6.859375 L 2.6875 0 L 1.375 0 L 1.375 -9.203125 L 2.453125 -9.203125 L 7.96875 -2.34375 L 7.96875 -9.203125 Z M 9.296875 -9.203125 "/></g></g></g><g fill="#201d1d" fill-opacity="1"><g transform="translate(285.845171, 57.566778)"><g><path d="M 3.203125 -8.0625 L 0.046875 -8.0625 L 0.046875 -9.203125 L 7.65625 -9.203125 L 7.65625 -8.0625 L 4.5 -8.0625 L 4.5 0 L 3.203125 0 Z M 3.203125 -8.0625 "/></g></g></g></svg>